<?xml version="1.0" encoding="utf-8"?><svg width="151" height="132" viewBox="0 0 151 132" xmlns="http://www.w3.org/2000/svg" xmlns:xlink="http://www.w3.org/1999/xlink"><view id="arrow" viewBox="128 92 12 20"/><svg width="12" height="20" fill="#326e9b" viewBox="0 0 492.004 492.004" x="128" y="92" xmlns="http://www.w3.org/2000/svg"><path d="M382.678 226.804L163.73 7.86C158.666 2.792 151.906 0 144.698 0s-13.968 2.792-19.032 7.86l-16.124 16.12c-10.492 10.504-10.492 27.576 0 38.064L293.398 245.9l-184.06 184.06c-5.064 5.068-7.86 11.824-7.86 19.028 0 7.212 2.796 13.968 7.86 19.04l16.124 16.116c5.068 5.068 11.824 7.86 19.032 7.86s13.968-2.792 19.032-7.86L382.678 265c5.076-5.084 7.864-11.872 7.848-19.088.016-7.244-2.772-14.028-7.848-19.108z"/></svg><view id="arrow-grey" viewBox="140 92 10 10"/><svg width="10" height="10" fill="#858e97" viewBox="0 0 492.004 492.004" x="140" y="92" xmlns="http://www.w3.org/2000/svg"><path d="M382.678 226.804L163.73 7.86C158.666 2.792 151.906 0 144.698 0s-13.968 2.792-19.032 7.86l-16.124 16.12c-10.492 10.504-10.492 27.576 0 38.064L293.398 245.9l-184.06 184.06c-5.064 5.068-7.86 11.824-7.86 19.028 0 7.212 2.796 13.968 7.86 19.04l16.124 16.116c5.068 5.068 11.824 7.86 19.032 7.86s13.968-2.792 19.032-7.86L382.678 265c5.076-5.084 7.864-11.872 7.848-19.088.016-7.244-2.772-14.028-7.848-19.108z"/></svg><view id="clock" viewBox="140 102 10 10"/><svg viewBox="0 0 512 512" width="10" height="10" x="140" y="102" xmlns="http://www.w3.org/2000/svg"><path fill="#858e97" d="M256 8C119 8 8 119 8 256s111 248 248 248 248-111 248-248S393 8 256 8zm0 448c-110.5 0-200-89.5-200-200S145.5 56 256 56s200 89.5 200 200-89.5 200-200 200zm61.8-104.4l-84.9-61.7c-3.1-2.3-4.9-5.9-4.9-9.7V116c0-6.6 5.4-12 12-12h32c6.6 0 12 5.4 12 12v141.7l66.8 48.6c5.4 3.9 6.5 11.4 2.6 16.8L334.6 349c-3.9 5.3-11.4 6.5-16.8 2.6z"/></svg><view id="email" viewBox="39 35 15 15"/><svg viewBox="0 0 512 512" width="15" height="15" x="39" y="35" xmlns="http://www.w3.org/2000/svg"><path fill="#858e97" d="M464 64H48C21.49 64 0 85.49 0 112v288c0 26.51 21.49 48 48 48h416c26.51 0 48-21.49 48-48V112c0-26.51-21.49-48-48-48zm0 48v40.805c-22.422 18.259-58.168 46.651-134.587 106.49-16.841 13.247-50.201 45.072-73.413 44.701-23.208.375-56.579-31.459-73.413-44.701C106.18 199.465 70.425 171.067 48 152.805V112h416zM48 400V214.398c22.914 18.251 55.409 43.862 104.938 82.646 21.857 17.205 60.134 55.186 103.062 54.955 42.717.231 80.509-37.199 103.053-54.947 49.528-38.783 82.032-64.401 104.947-82.653V400H48z"/></svg><view id="email-white" viewBox="76 98 15 15"/><svg viewBox="0 0 512 512" width="15" height="15" x="76" y="98" xmlns="http://www.w3.org/2000/svg"><path fill="#fff" d="M464 64H48C21.49 64 0 85.49 0 112v288c0 26.51 21.49 48 48 48h416c26.51 0 48-21.49 48-48V112c0-26.51-21.49-48-48-48zm0 48v40.805c-22.422 18.259-58.168 46.651-134.587 106.49-16.841 13.247-50.201 45.072-73.413 44.701-23.208.375-56.579-31.459-73.413-44.701C106.18 199.465 70.425 171.067 48 152.805V112h416zM48 400V214.398c22.914 18.251 55.409 43.862 104.938 82.646 21.857 17.205 60.134 55.186 103.062 54.955 42.717.231 80.509-37.199 103.053-54.947 49.528-38.783 82.032-64.401 104.947-82.653V400H48z"/></svg><view id="envelope" viewBox="0 35 23 17"/><svg viewBox="0 0 512 512" width="23" height="17" y="35" xmlns="http://www.w3.org/2000/svg"><path fill="#fff" d="M502.3 190.8c3.9-3.1 9.7-.2 9.7 4.7V400c0 26.5-21.5 48-48 48H48c-26.5 0-48-21.5-48-48V195.6c0-5 5.7-7.8 9.7-4.7 22.4 17.4 52.1 39.5 154.1 113.6 21.1 15.4 56.7 47.8 92.2 47.6 35.7.3 72-32.8 92.3-47.6 102-74.1 131.6-96.3 154-113.7zM256 320c23.2.4 56.6-29.2 73.4-41.4 132.7-96.3 142.8-104.7 173.4-128.7 5.8-4.5 9.2-11.5 9.2-18.9v-19c0-26.5-21.5-48-48-48H48C21.5 64 0 85.5 0 112v19c0 7.4 3.4 14.3 9.2 18.9 30.6 23.9 40.7 32.4 173.4 128.7 16.8 12.2 50.2 41.8 73.4 41.4z"/></svg><view id="facebook" viewBox="59 0 23 23"/><svg height="23" viewBox="0 0 24 24" width="23" x="59" xmlns="http://www.w3.org/2000/svg"><path fill="#3b5998" d="M15.997 3.985h2.191V.169C17.81.117 16.51 0 14.996 0c-3.159 0-5.323 1.987-5.323 5.639V9H6.187v4.266h3.486V24h4.274V13.267h3.345l.531-4.266h-3.877V6.062c.001-1.233.333-2.077 2.051-2.077z"/></svg><view id="facebook-grey" viewBox="59 23 23 23"/><svg height="23" viewBox="0 0 24 24" width="23" x="59" y="23" xmlns="http://www.w3.org/2000/svg"><path fill="#858e97" d="M15.997 3.985h2.191V.169C17.81.117 16.51 0 14.996 0c-3.159 0-5.323 1.987-5.323 5.639V9H6.187v4.266h3.486V24h4.274V13.267h3.345l.531-4.266h-3.877V6.062c.001-1.233.333-2.077 2.051-2.077z"/></svg><view id="facebook-light-grey" viewBox="0 52 23 23"/><svg height="23" viewBox="0 0 24 24" width="23" y="52" xmlns="http://www.w3.org/2000/svg"><path fill="#ccc" d="M15.997 3.985h2.191V.169C17.81.117 16.51 0 14.996 0c-3.159 0-5.323 1.987-5.323 5.639V9H6.187v4.266h3.486V24h4.274V13.267h3.345l.531-4.266h-3.877V6.062c.001-1.233.333-2.077 2.051-2.077z"/></svg><view id="facebook-white" viewBox="23 52 23 23"/><svg height="23" viewBox="0 0 24 24" width="23" x="23" y="52" xmlns="http://www.w3.org/2000/svg"><path fill="#fff" d="M15.997 3.985h2.191V.169C17.81.117 16.51 0 14.996 0c-3.159 0-5.323 1.987-5.323 5.639V9H6.187v4.266h3.486V24h4.274V13.267h3.345l.531-4.266h-3.877V6.062c.001-1.233.333-2.077 2.051-2.077z"/></svg><view id="instagram" viewBox="46 52 23 23"/><svg width="23" height="23" viewBox="0 0 438.536 438.536" x="46" y="52" xmlns="http://www.w3.org/2000/svg"><path fill="#3f729b" d="M421.981 16.562C410.941 5.519 397.711 0 382.298 0H56.248C40.83 0 27.604 5.521 16.561 16.562 5.52 27.6.001 40.828.001 56.243V382.29c0 15.413 5.518 28.644 16.56 39.683 11.043 11.04 24.272 16.563 39.687 16.563h326.046c15.41 0 28.644-5.523 39.684-16.563 11.043-11.039 16.557-24.27 16.557-39.683V56.243c-.001-15.418-5.514-28.639-16.554-39.681zM157.462 158.025c17.224-16.652 37.924-24.982 62.097-24.982 24.36 0 45.153 8.33 62.381 24.982 17.228 16.655 25.837 36.785 25.837 60.386 0 23.598-8.609 43.729-25.837 60.379-17.228 16.659-38.014 24.988-62.381 24.988-24.172 0-44.87-8.336-62.097-24.988-17.228-16.652-25.841-36.781-25.841-60.379 0-23.601 8.613-43.73 25.841-60.386zm231.403 212.564c0 4.945-1.718 9.083-5.141 12.416-3.433 3.33-7.519 4.996-12.282 4.996h-305.2c-4.948 0-9.091-1.666-12.419-4.996-3.333-3.326-4.998-7.471-4.998-12.416V185.575H89.08c-3.805 11.993-5.708 24.462-5.708 37.402 0 36.553 13.322 67.715 39.969 93.511 26.65 25.786 58.721 38.685 96.217 38.685 24.744 0 47.583-5.903 68.527-17.703 20.937-11.807 37.486-27.839 49.676-48.112 12.183-20.272 18.274-42.4 18.274-66.38 0-12.94-1.91-25.406-5.715-37.402h38.547V370.59h-.002zm0-254.963c0 5.52-1.903 10.184-5.716 13.99-3.805 3.809-8.466 5.711-13.989 5.711h-49.676c-5.517 0-10.185-1.903-13.99-5.711-3.806-3.806-5.708-8.47-5.708-13.99V68.522c0-5.33 1.902-9.945 5.708-13.848 3.806-3.901 8.474-5.854 13.99-5.854h49.676c5.523 0 10.185 1.952 13.989 5.854 3.812 3.903 5.716 8.518 5.716 13.848v47.104z"/></svg><view id="instagram-grey" viewBox="82 0 23 23"/><svg width="23" height="23" viewBox="0 0 438.536 438.536" x="82" xmlns="http://www.w3.org/2000/svg"><path fill="#858e97" d="M421.981 16.562C410.941 5.519 397.711 0 382.298 0H56.248C40.83 0 27.604 5.521 16.561 16.562 5.52 27.6.001 40.828.001 56.243V382.29c0 15.413 5.518 28.644 16.56 39.683 11.043 11.04 24.272 16.563 39.687 16.563h326.046c15.41 0 28.644-5.523 39.684-16.563 11.043-11.039 16.557-24.27 16.557-39.683V56.243c-.001-15.418-5.514-28.639-16.554-39.681zM157.462 158.025c17.224-16.652 37.924-24.982 62.097-24.982 24.36 0 45.153 8.33 62.381 24.982 17.228 16.655 25.837 36.785 25.837 60.386 0 23.598-8.609 43.729-25.837 60.379-17.228 16.659-38.014 24.988-62.381 24.988-24.172 0-44.87-8.336-62.097-24.988-17.228-16.652-25.841-36.781-25.841-60.379 0-23.601 8.613-43.73 25.841-60.386zm231.403 212.564c0 4.945-1.718 9.083-5.141 12.416-3.433 3.33-7.519 4.996-12.282 4.996h-305.2c-4.948 0-9.091-1.666-12.419-4.996-3.333-3.326-4.998-7.471-4.998-12.416V185.575H89.08c-3.805 11.993-5.708 24.462-5.708 37.402 0 36.553 13.322 67.715 39.969 93.511 26.65 25.786 58.721 38.685 96.217 38.685 24.744 0 47.583-5.903 68.527-17.703 20.937-11.807 37.486-27.839 49.676-48.112 12.183-20.272 18.274-42.4 18.274-66.38 0-12.94-1.91-25.406-5.715-37.402h38.547V370.59h-.002zm0-254.963c0 5.52-1.903 10.184-5.716 13.99-3.805 3.809-8.466 5.711-13.989 5.711h-49.676c-5.517 0-10.185-1.903-13.99-5.711-3.806-3.806-5.708-8.47-5.708-13.99V68.522c0-5.33 1.902-9.945 5.708-13.848 3.806-3.901 8.474-5.854 13.99-5.854h49.676c5.523 0 10.185 1.952 13.989 5.854 3.812 3.903 5.716 8.518 5.716 13.848v47.104z"/></svg><view id="instagram-light-grey" viewBox="82 23 23 23"/><svg width="23" height="23" viewBox="0 0 438.536 438.536" x="82" y="23" xmlns="http://www.w3.org/2000/svg"><path fill="#ccc" d="M421.981 16.562C410.941 5.519 397.711 0 382.298 0H56.248C40.83 0 27.604 5.521 16.561 16.562 5.52 27.6.001 40.828.001 56.243V382.29c0 15.413 5.518 28.644 16.56 39.683 11.043 11.04 24.272 16.563 39.687 16.563h326.046c15.41 0 28.644-5.523 39.684-16.563 11.043-11.039 16.557-24.27 16.557-39.683V56.243c-.001-15.418-5.514-28.639-16.554-39.681zM157.462 158.025c17.224-16.652 37.924-24.982 62.097-24.982 24.36 0 45.153 8.33 62.381 24.982 17.228 16.655 25.837 36.785 25.837 60.386 0 23.598-8.609 43.729-25.837 60.379-17.228 16.659-38.014 24.988-62.381 24.988-24.172 0-44.87-8.336-62.097-24.988-17.228-16.652-25.841-36.781-25.841-60.379 0-23.601 8.613-43.73 25.841-60.386zm231.403 212.564c0 4.945-1.718 9.083-5.141 12.416-3.433 3.33-7.519 4.996-12.282 4.996h-305.2c-4.948 0-9.091-1.666-12.419-4.996-3.333-3.326-4.998-7.471-4.998-12.416V185.575H89.08c-3.805 11.993-5.708 24.462-5.708 37.402 0 36.553 13.322 67.715 39.969 93.511 26.65 25.786 58.721 38.685 96.217 38.685 24.744 0 47.583-5.903 68.527-17.703 20.937-11.807 37.486-27.839 49.676-48.112 12.183-20.272 18.274-42.4 18.274-66.38 0-12.94-1.91-25.406-5.715-37.402h38.547V370.59h-.002zm0-254.963c0 5.52-1.903 10.184-5.716 13.99-3.805 3.809-8.466 5.711-13.989 5.711h-49.676c-5.517 0-10.185-1.903-13.99-5.711-3.806-3.806-5.708-8.47-5.708-13.99V68.522c0-5.33 1.902-9.945 5.708-13.848 3.806-3.901 8.474-5.854 13.99-5.854h49.676c5.523 0 10.185 1.952 13.989 5.854 3.812 3.903 5.716 8.518 5.716 13.848v47.104z"/></svg><view id="instagram-white" viewBox="82 46 23 23"/><svg width="23" height="23" viewBox="0 0 438.536 438.536" x="82" y="46" xmlns="http://www.w3.org/2000/svg"><path fill="#fff" d="M421.981 16.562C410.941 5.519 397.711 0 382.298 0H56.248C40.83 0 27.604 5.521 16.561 16.562 5.52 27.6.001 40.828.001 56.243V382.29c0 15.413 5.518 28.644 16.56 39.683 11.043 11.04 24.272 16.563 39.687 16.563h326.046c15.41 0 28.644-5.523 39.684-16.563 11.043-11.039 16.557-24.27 16.557-39.683V56.243c-.001-15.418-5.514-28.639-16.554-39.681zM157.462 158.025c17.224-16.652 37.924-24.982 62.097-24.982 24.36 0 45.153 8.33 62.381 24.982 17.228 16.655 25.837 36.785 25.837 60.386 0 23.598-8.609 43.729-25.837 60.379-17.228 16.659-38.014 24.988-62.381 24.988-24.172 0-44.87-8.336-62.097-24.988-17.228-16.652-25.841-36.781-25.841-60.379 0-23.601 8.613-43.73 25.841-60.386zm231.403 212.564c0 4.945-1.718 9.083-5.141 12.416-3.433 3.33-7.519 4.996-12.282 4.996h-305.2c-4.948 0-9.091-1.666-12.419-4.996-3.333-3.326-4.998-7.471-4.998-12.416V185.575H89.08c-3.805 11.993-5.708 24.462-5.708 37.402 0 36.553 13.322 67.715 39.969 93.511 26.65 25.786 58.721 38.685 96.217 38.685 24.744 0 47.583-5.903 68.527-17.703 20.937-11.807 37.486-27.839 49.676-48.112 12.183-20.272 18.274-42.4 18.274-66.38 0-12.94-1.91-25.406-5.715-37.402h38.547V370.59h-.002zm0-254.963c0 5.52-1.903 10.184-5.716 13.99-3.805 3.809-8.466 5.711-13.989 5.711h-49.676c-5.517 0-10.185-1.903-13.99-5.711-3.806-3.806-5.708-8.47-5.708-13.99V68.522c0-5.33 1.902-9.945 5.708-13.848 3.806-3.901 8.474-5.854 13.99-5.854h49.676c5.523 0 10.185 1.952 13.989 5.854 3.812 3.903 5.716 8.518 5.716 13.848v47.104z"/></svg><view id="linkedin" viewBox="0 75 23 23"/><svg height="23" viewBox="-21 -35 682.667 682" width="23" y="75" xmlns="http://www.w3.org/2000/svg"><path fill="#007fb1" d="M77.613-.668C30.683-.668 0 30.148 0 70.652c0 39.61 29.77 71.305 75.813 71.305h.89c47.848 0 77.625-31.695 77.625-71.305-.894-40.504-29.777-71.32-76.715-71.32zm0 0M8.11 198.313h137.195V611.07H8.109zm0 0M482.055 188.625c-74.012 0-123.64 69.547-123.64 69.547v-59.86h-137.2V611.07h137.191v-230.5c0-12.34.895-24.66 4.52-33.484 9.918-24.64 32.488-50.168 70.39-50.168 49.645 0 69.5 37.852 69.5 93.34V611.07H640V374.402c0-126.78-67.688-185.777-157.945-185.777zm0 0"/></svg><view id="linkedin-grey" viewBox="23 75 23 23"/><svg height="23" viewBox="-21 -35 682.667 682" width="23" x="23" y="75" xmlns="http://www.w3.org/2000/svg"><path fill="#858e97" d="M77.613-.668C30.683-.668 0 30.148 0 70.652c0 39.61 29.77 71.305 75.813 71.305h.89c47.848 0 77.625-31.695 77.625-71.305-.894-40.504-29.777-71.32-76.715-71.32zm0 0M8.11 198.313h137.195V611.07H8.109zm0 0M482.055 188.625c-74.012 0-123.64 69.547-123.64 69.547v-59.86h-137.2V611.07h137.191v-230.5c0-12.34.895-24.66 4.52-33.484 9.918-24.64 32.488-50.168 70.39-50.168 49.645 0 69.5 37.852 69.5 93.34V611.07H640V374.402c0-126.78-67.688-185.777-157.945-185.777zm0 0"/></svg><view id="linkedin-light-grey" viewBox="46 75 23 23"/><svg height="23" viewBox="-21 -35 682.667 682" width="23" x="46" y="75" xmlns="http://www.w3.org/2000/svg"><path fill="#ccc" d="M77.613-.668C30.683-.668 0 30.148 0 70.652c0 39.61 29.77 71.305 75.813 71.305h.89c47.848 0 77.625-31.695 77.625-71.305-.894-40.504-29.777-71.32-76.715-71.32zm0 0M8.11 198.313h137.195V611.07H8.109zm0 0M482.055 188.625c-74.012 0-123.64 69.547-123.64 69.547v-59.86h-137.2V611.07h137.191v-230.5c0-12.34.895-24.66 4.52-33.484 9.918-24.64 32.488-50.168 70.39-50.168 49.645 0 69.5 37.852 69.5 93.34V611.07H640V374.402c0-126.78-67.688-185.777-157.945-185.777zm0 0"/></svg><view id="linkedin-white" viewBox="69 75 23 23"/><svg height="23" viewBox="-21 -35 682.667 682" width="23" x="69" y="75" xmlns="http://www.w3.org/2000/svg"><path fill="#fff" d="M77.613-.668C30.683-.668 0 30.148 0 70.652c0 39.61 29.77 71.305 75.813 71.305h.89c47.848 0 77.625-31.695 77.625-71.305-.894-40.504-29.777-71.32-76.715-71.32zm0 0M8.11 198.313h137.195V611.07H8.109zm0 0M482.055 188.625c-74.012 0-123.64 69.547-123.64 69.547v-59.86h-137.2V611.07h137.191v-230.5c0-12.34.895-24.66 4.52-33.484 9.918-24.64 32.488-50.168 70.39-50.168 49.645 0 69.5 37.852 69.5 93.34V611.07H640V374.402c0-126.78-67.688-185.777-157.945-185.777zm0 0"/></svg><view id="map" viewBox="23 98 17 19"/><svg width="17" height="19" viewBox="0 0 512 512" x="23" y="98" xmlns="http://www.w3.org/2000/svg"><path fill="#858e97" d="M256 0C156.748 0 76 80.748 76 180c0 33.534 9.289 66.26 26.869 94.652l142.885 230.257A15 15 0 00258.499 512h.119a14.997 14.997 0 0012.75-7.292L410.611 272.22C427.221 244.428 436 212.539 436 180 436 80.748 355.252 0 256 0zm128.866 256.818L258.272 468.186l-129.905-209.34C113.734 235.214 105.8 207.95 105.8 180c0-82.71 67.49-150.2 150.2-150.2S406.1 97.29 406.1 180c0 27.121-7.411 53.688-21.234 76.818z"/><path fill="#858e97" d="M256 90c-49.626 0-90 40.374-90 90 0 49.309 39.717 90 90 90 50.903 0 90-41.233 90-90 0-49.626-40.374-90-90-90zm0 150.2c-33.257 0-60.2-27.033-60.2-60.2 0-33.084 27.116-60.2 60.2-60.2s60.1 27.116 60.1 60.2c0 32.683-26.316 60.2-60.1 60.2z"/></svg><view id="minus-circle-solid" viewBox="105 80 18 18"/><svg viewBox="0 0 512 512" width="18" height="18" x="105" y="80" xmlns="http://www.w3.org/2000/svg"><rect width="60%" height="50%" x="20%" y="20%" fill="#2e6da4"/><path fill="#fff" d="M256 8C119 8 8 119 8 256s111 248 248 248 248-111 248-248S393 8 256 8zM124 296c-6.6 0-12-5.4-12-12v-56c0-6.6 5.4-12 12-12h264c6.6 0 12 5.4 12 12v56c0 6.6-5.4 12-12 12H124z"/></svg><view id="phone" viewBox="91 98 15 15"/><svg viewBox="0 0 512 512" width="15" height="15" x="91" y="98" xmlns="http://www.w3.org/2000/svg"><path fill="#858e97" d="M497.39 361.8l-112-48a24 24 0 00-28 6.9l-49.6 60.6A370.66 370.66 0 01130.6 204.11l60.6-49.6a23.94 23.94 0 006.9-28l-48-112A24.16 24.16 0 00122.6.61l-104 24A24 24 0 000 48c0 256.5 207.9 464 464 464a24 24 0 0023.4-18.6l24-104a24.29 24.29 0 00-14.01-27.6z"/></svg><view id="phone-white" viewBox="106 98 15 15"/><svg viewBox="0 0 512 512" width="15" height="15" x="106" y="98" xmlns="http://www.w3.org/2000/svg"><path fill="#fff" d="M497.39 361.8l-112-48a24 24 0 00-28 6.9l-49.6 60.6A370.66 370.66 0 01130.6 204.11l60.6-49.6a23.94 23.94 0 006.9-28l-48-112A24.16 24.16 0 00122.6.61l-104 24A24 24 0 000 48c0 256.5 207.9 464 464 464a24 24 0 0023.4-18.6l24-104a24.29 24.29 0 00-14.01-27.6z"/></svg><view id="plus-circle-solid" viewBox="40 98 18 18"/><svg viewBox="0 0 512 512" width="18" height="18" x="40" y="98" xmlns="http://www.w3.org/2000/svg"><rect width="60%" height="60%" x="20%" y="20%" fill="#fff"/><path fill="#858e97" d="M256 8C119 8 8 119 8 256s111 248 248 248 248-111 248-248S393 8 256 8zm144 276c0 6.6-5.4 12-12 12h-92v92c0 6.6-5.4 12-12 12h-56c-6.6 0-12-5.4-12-12v-92h-92c-6.6 0-12-5.4-12-12v-56c0-6.6 5.4-12 12-12h92v-92c0-6.6 5.4-12 12-12h56c6.6 0 12 5.4 12 12v92h92c6.6 0 12 5.4 12 12v56z"/></svg><view id="plus-circle-solid-hover" viewBox="58 98 18 18"/><svg viewBox="0 0 512 512" width="18" height="18" x="58" y="98" xmlns="http://www.w3.org/2000/svg"><rect width="60%" height="60%" x="20%" y="20%" fill="#3d4143"/><path fill="#fff" d="M256 8C119 8 8 119 8 256s111 248 248 248 248-111 248-248S393 8 256 8zm144 276c0 6.6-5.4 12-12 12h-92v92c0 6.6-5.4 12-12 12h-56c-6.6 0-12-5.4-12-12v-92h-92c-6.6 0-12-5.4-12-12v-56c0-6.6 5.4-12 12-12h92v-92c0-6.6 5.4-12 12-12h56c6.6 0 12 5.4 12 12v92h92c6.6 0 12 5.4 12 12v56z"/></svg><view id="plus-solid" viewBox="35 0 24 24"/><svg viewBox="0 0 448 512" width="24" height="24" x="35" xmlns="http://www.w3.org/2000/svg"><path fill="#fff" d="M416 208H272V64c0-17.67-14.33-32-32-32h-32c-17.67 0-32 14.33-32 32v144H32c-17.67 0-32 14.33-32 32v32c0 17.67 14.33 32 32 32h144v144c0 17.67 14.33 32 32 32h32c17.67 0 32-14.33 32-32V304h144c17.67 0 32-14.33 32-32v-32c0-17.67-14.33-32-32-32z"/></svg><view id="quote" viewBox="0 0 35 35"/><svg width="35" height="35" viewBox="0 0 475.082 475.081" xmlns="http://www.w3.org/2000/svg"><path fill="#578ab6" d="M164.45 219.27h-63.954c-7.614 0-14.087-2.664-19.417-7.994-5.327-5.33-7.994-11.801-7.994-19.417v-9.132c0-20.177 7.139-37.401 21.416-51.678 14.276-14.272 31.503-21.411 51.678-21.411h18.271c4.948 0 9.229-1.809 12.847-5.424 3.616-3.617 5.424-7.898 5.424-12.847V54.819c0-4.948-1.809-9.233-5.424-12.85-3.617-3.612-7.898-5.424-12.847-5.424h-18.271c-19.797 0-38.684 3.858-56.673 11.563-17.987 7.71-33.545 18.132-46.68 31.267-13.134 13.129-23.553 28.688-31.262 46.677C3.855 144.039 0 162.931 0 182.726v200.991c0 15.235 5.327 28.171 15.986 38.834 10.66 10.657 23.606 15.985 38.832 15.985h109.639c15.225 0 28.167-5.328 38.828-15.985 10.657-10.663 15.987-23.599 15.987-38.834V274.088c0-15.232-5.33-28.168-15.994-38.832-10.656-10.656-23.603-15.986-38.828-15.986zM459.103 235.256c-10.656-10.656-23.599-15.986-38.828-15.986h-63.953c-7.61 0-14.089-2.664-19.41-7.994-5.332-5.33-7.994-11.801-7.994-19.417v-9.132c0-20.177 7.139-37.401 21.409-51.678 14.271-14.272 31.497-21.411 51.682-21.411h18.267c4.949 0 9.233-1.809 12.848-5.424 3.613-3.617 5.428-7.898 5.428-12.847V54.819c0-4.948-1.814-9.233-5.428-12.85-3.614-3.612-7.898-5.424-12.848-5.424h-18.267c-19.808 0-38.691 3.858-56.685 11.563-17.984 7.71-33.537 18.132-46.672 31.267-13.135 13.129-23.559 28.688-31.265 46.677-7.707 17.987-11.567 36.879-11.567 56.674v200.991c0 15.235 5.332 28.171 15.988 38.834 10.657 10.657 23.6 15.985 38.828 15.985h109.633c15.229 0 28.171-5.328 38.827-15.985 10.664-10.663 15.985-23.599 15.985-38.834V274.088c.001-15.233-5.321-28.168-15.978-38.832z"/></svg><view id="search" viewBox="105 0 23 23"/><svg height="23" viewBox="-1 0 136 136.219" width="23" x="105" xmlns="http://www.w3.org/2000/svg"><path fill="#ccc" d="M93.148 80.832c16.352-23.09 10.883-55.062-12.207-71.41S25.88-1.461 9.531 21.632C-6.816 44.723-1.352 76.693 21.742 93.04a51.226 51.226 0 0055.653 2.3l37.77 37.544c4.077 4.293 10.862 4.465 15.155.387 4.293-4.075 4.465-10.86.39-15.153a9.21 9.21 0 00-.39-.39zm-41.84 3.5c-18.245.004-33.038-14.777-33.05-33.023-.004-18.246 14.777-33.04 33.027-33.047 18.223-.008 33.008 14.75 33.043 32.972.031 18.25-14.742 33.067-32.996 33.098h-.023zm0 0"/></svg><view id="search-white" viewBox="23 35 16 16"/><svg height="16" viewBox="-1 0 136 136.219" width="16" x="23" y="35" xmlns="http://www.w3.org/2000/svg"><path fill="#fff" d="M93.148 80.832c16.352-23.09 10.883-55.062-12.207-71.41S25.88-1.461 9.531 21.632C-6.816 44.723-1.352 76.693 21.742 93.04a51.226 51.226 0 0055.653 2.3l37.77 37.544c4.077 4.293 10.862 4.465 15.155.387 4.293-4.075 4.465-10.86.39-15.153a9.21 9.21 0 00-.39-.39zm-41.84 3.5c-18.245.004-33.038-14.777-33.05-33.023-.004-18.246 14.777-33.04 33.027-33.047 18.223-.008 33.008 14.75 33.043 32.972.031 18.25-14.742 33.067-32.996 33.098h-.023zm0 0"/></svg><view id="speech-balloon" viewBox="0 117 15 15"/><svg viewBox="0 0 512 512" width="15" height="15" y="117" xmlns="http://www.w3.org/2000/svg"><path fill="#858e97" d="M256 32C114.6 32 0 125.1 0 240c0 47.6 19.9 91.2 52.9 126.3C38 405.7 7 439.1 6.5 439.5c-6.6 7-8.4 17.2-4.6 26S14.4 480 24 480c61.5 0 110-25.7 139.1-46.3C192 442.8 223.2 448 256 448c141.4 0 256-93.1 256-208S397.4 32 256 32zm0 368c-26.7 0-53.1-4.1-78.4-12.1l-22.7-7.2-19.5 13.8c-14.3 10.1-33.9 21.4-57.5 29 7.3-12.1 14.4-25.7 19.9-40.2l10.6-28.1-20.6-21.8C69.7 314.1 48 282.2 48 240c0-88.2 93.3-160 208-160s208 71.8 208 160-93.3 160-208 160z"/></svg><view id="speech-balloon-white" viewBox="15 117 15 15"/><svg viewBox="0 0 512 512" width="15" height="15" x="15" y="117" xmlns="http://www.w3.org/2000/svg"><path fill="#fff" d="M256 32C114.6 32 0 125.1 0 240c0 47.6 19.9 91.2 52.9 126.3C38 405.7 7 439.1 6.5 439.5c-6.6 7-8.4 17.2-4.6 26S14.4 480 24 480c61.5 0 110-25.7 139.1-46.3C192 442.8 223.2 448 256 448c141.4 0 256-93.1 256-208S397.4 32 256 32zm0 368c-26.7 0-53.1-4.1-78.4-12.1l-22.7-7.2-19.5 13.8c-14.3 10.1-33.9 21.4-57.5 29 7.3-12.1 14.4-25.7 19.9-40.2l10.6-28.1-20.6-21.8C69.7 314.1 48 282.2 48 240c0-88.2 93.3-160 208-160s208 71.8 208 160-93.3 160-208 160z"/></svg><view id="triangle" viewBox="35 24 10 10"/><svg width="10" height="10" viewBox="0 0 96.154 96.154" x="35" y="24" xmlns="http://www.w3.org/2000/svg"><path fill="#555" d="M95.594 75.183L49.642 17.578c-.76-.951-2.367-.951-3.127 0L.559 75.187c-.546.689-.708 1.717-.414 2.61.061.187.13.33.187.437a2.002 2.002 0 001.763 1.056h91.967a2 2 0 001.763-1.056c.06-.109.126-.254.184-.427.296-.904.134-1.933-.415-2.624z"/></svg><view id="triangle-blue" viewBox="45 24 10 10"/><svg width="10" height="10" viewBox="0 0 96.154 96.154" x="45" y="24" xmlns="http://www.w3.org/2000/svg"><path fill="#2e6da4" d="M95.594 75.183L49.642 17.578c-.76-.951-2.367-.951-3.127 0L.559 75.187c-.546.689-.708 1.717-.414 2.61.061.187.13.33.187.437a2.002 2.002 0 001.763 1.056h91.967a2 2 0 001.763-1.056c.06-.109.126-.254.184-.427.296-.904.134-1.933-.415-2.624z"/></svg><view id="triangle-white" viewBox="69 52 10 10"/><svg width="10" height="10" viewBox="0 0 96.154 96.154" x="69" y="52" xmlns="http://www.w3.org/2000/svg"><path fill="#fff" d="M95.594 75.183L49.642 17.578c-.76-.951-2.367-.951-3.127 0L.559 75.187c-.546.689-.708 1.717-.414 2.61.061.187.13.33.187.437a2.002 2.002 0 001.763 1.056h91.967a2 2 0 001.763-1.056c.06-.109.126-.254.184-.427.296-.904.134-1.933-.415-2.624z"/></svg><view id="twitter" viewBox="105 23 23 19"/><svg width="23" height="19" viewBox="0 0 512 512" x="105" y="23" xmlns="http://www.w3.org/2000/svg"><path fill="#00aced" d="M512 97.248c-19.04 8.352-39.328 13.888-60.48 16.576 21.76-12.992 38.368-33.408 46.176-58.016-20.288 12.096-42.688 20.64-66.56 25.408C411.872 60.704 384.416 48 354.464 48c-58.112 0-104.896 47.168-104.896 104.992 0 8.32.704 16.32 2.432 23.936-87.264-4.256-164.48-46.08-216.352-109.792-9.056 15.712-14.368 33.696-14.368 53.056 0 36.352 18.72 68.576 46.624 87.232-16.864-.32-33.408-5.216-47.424-12.928v1.152c0 51.008 36.384 93.376 84.096 103.136-8.544 2.336-17.856 3.456-27.52 3.456-6.72 0-13.504-.384-19.872-1.792 13.6 41.568 52.192 72.128 98.08 73.12-35.712 27.936-81.056 44.768-130.144 44.768-8.608 0-16.864-.384-25.12-1.44C46.496 446.88 101.6 464 161.024 464c193.152 0 298.752-160 298.752-298.688 0-4.64-.16-9.12-.384-13.568 20.832-14.784 38.336-33.248 52.608-54.496z"/></svg><view id="twitter-grey" viewBox="105 42 23 19"/><svg width="23" height="19" viewBox="0 0 512 512" x="105" y="42" xmlns="http://www.w3.org/2000/svg"><path fill="#858e97" d="M512 97.248c-19.04 8.352-39.328 13.888-60.48 16.576 21.76-12.992 38.368-33.408 46.176-58.016-20.288 12.096-42.688 20.64-66.56 25.408C411.872 60.704 384.416 48 354.464 48c-58.112 0-104.896 47.168-104.896 104.992 0 8.32.704 16.32 2.432 23.936-87.264-4.256-164.48-46.08-216.352-109.792-9.056 15.712-14.368 33.696-14.368 53.056 0 36.352 18.72 68.576 46.624 87.232-16.864-.32-33.408-5.216-47.424-12.928v1.152c0 51.008 36.384 93.376 84.096 103.136-8.544 2.336-17.856 3.456-27.52 3.456-6.72 0-13.504-.384-19.872-1.792 13.6 41.568 52.192 72.128 98.08 73.12-35.712 27.936-81.056 44.768-130.144 44.768-8.608 0-16.864-.384-25.12-1.44C46.496 446.88 101.6 464 161.024 464c193.152 0 298.752-160 298.752-298.688 0-4.64-.16-9.12-.384-13.568 20.832-14.784 38.336-33.248 52.608-54.496z"/></svg><view id="twitter-light-grey" viewBox="105 61 23 19"/><svg width="23" height="19" viewBox="0 0 512 512" x="105" y="61" xmlns="http://www.w3.org/2000/svg"><path fill="#ccc" d="M512 97.248c-19.04 8.352-39.328 13.888-60.48 16.576 21.76-12.992 38.368-33.408 46.176-58.016-20.288 12.096-42.688 20.64-66.56 25.408C411.872 60.704 384.416 48 354.464 48c-58.112 0-104.896 47.168-104.896 104.992 0 8.32.704 16.32 2.432 23.936-87.264-4.256-164.48-46.08-216.352-109.792-9.056 15.712-14.368 33.696-14.368 53.056 0 36.352 18.72 68.576 46.624 87.232-16.864-.32-33.408-5.216-47.424-12.928v1.152c0 51.008 36.384 93.376 84.096 103.136-8.544 2.336-17.856 3.456-27.52 3.456-6.72 0-13.504-.384-19.872-1.792 13.6 41.568 52.192 72.128 98.08 73.12-35.712 27.936-81.056 44.768-130.144 44.768-8.608 0-16.864-.384-25.12-1.44C46.496 446.88 101.6 464 161.024 464c193.152 0 298.752-160 298.752-298.688 0-4.64-.16-9.12-.384-13.568 20.832-14.784 38.336-33.248 52.608-54.496z"/></svg><view id="twitter-white" viewBox="0 98 23 19"/><svg width="23" height="19" viewBox="0 0 512 512" y="98" xmlns="http://www.w3.org/2000/svg"><path fill="#fff" d="M512 97.248c-19.04 8.352-39.328 13.888-60.48 16.576 21.76-12.992 38.368-33.408 46.176-58.016-20.288 12.096-42.688 20.64-66.56 25.408C411.872 60.704 384.416 48 354.464 48c-58.112 0-104.896 47.168-104.896 104.992 0 8.32.704 16.32 2.432 23.936-87.264-4.256-164.48-46.08-216.352-109.792-9.056 15.712-14.368 33.696-14.368 53.056 0 36.352 18.72 68.576 46.624 87.232-16.864-.32-33.408-5.216-47.424-12.928v1.152c0 51.008 36.384 93.376 84.096 103.136-8.544 2.336-17.856 3.456-27.52 3.456-6.72 0-13.504-.384-19.872-1.792 13.6 41.568 52.192 72.128 98.08 73.12-35.712 27.936-81.056 44.768-130.144 44.768-8.608 0-16.864-.384-25.12-1.44C46.496 446.88 101.6 464 161.024 464c193.152 0 298.752-160 298.752-298.688 0-4.64-.16-9.12-.384-13.568 20.832-14.784 38.336-33.248 52.608-54.496z"/></svg><view id="youtube" viewBox="128 0 23 23"/><svg width="23" height="23" viewBox="0 0 511.627 511.627" x="128" xmlns="http://www.w3.org/2000/svg"><path fill="#cd332d" d="M459.954 264.376c-2.471-11.233-7.949-20.653-16.416-28.264-8.474-7.611-18.227-12.085-29.27-13.418-35.02-3.806-87.837-5.708-158.457-5.708-70.618 0-123.341 1.903-158.174 5.708-11.227 1.333-21.029 5.807-29.407 13.418-8.376 7.614-13.896 17.035-16.562 28.264-4.948 22.083-7.423 55.391-7.423 99.931 0 45.299 2.475 78.61 7.423 99.93 2.478 11.225 7.951 20.653 16.421 28.261 8.47 7.614 18.225 11.991 29.263 13.134 35.026 3.997 87.847 5.996 158.461 5.996 70.609 0 123.44-1.999 158.453-5.996 11.043-1.143 20.748-5.52 29.126-13.134 8.377-7.607 13.897-17.036 16.56-28.261 4.948-22.083 7.426-55.391 7.426-99.93-.001-45.3-2.479-78.612-7.424-99.931zm-294.929 28.842h-30.549v162.45h-28.549v-162.45h-29.98v-26.837h89.079v26.837zm77.085 162.45H216.7v-15.421c-10.278 11.615-19.989 17.419-29.125 17.419-8.754 0-14.275-3.524-16.556-10.564-1.521-4.568-2.286-11.519-2.286-20.844V314.627h25.41v103.924c0 6.088.096 9.421.288 9.993.571 3.997 2.568 5.995 5.996 5.995 5.138 0 10.566-3.997 16.274-11.991V314.627h25.41v141.041zm97.073-42.257c0 13.894-.855 23.417-2.56 28.558-3.244 10.462-9.996 15.697-20.273 15.697-9.137 0-17.986-5.235-26.556-15.697v13.702h-25.406v-189.29h25.406v61.955c8.189-10.273 17.036-15.413 26.556-15.413 10.277 0 17.029 5.331 20.273 15.988 1.704 4.948 2.56 14.369 2.56 28.264v56.236zm96.502-23.408h-51.104v24.839c0 13.134 4.374 19.697 13.131 19.697 6.279 0 10.089-3.422 11.42-10.28.376-1.902.571-7.706.571-17.412h25.981v3.71c0 9.329-.195 14.846-.572 16.563-.567 5.133-2.56 10.273-5.995 15.413-6.852 10.089-17.139 15.133-30.841 15.133-13.127 0-23.407-4.855-30.833-14.558-5.517-7.043-8.275-18.083-8.275-33.12v-49.396c0-15.036 2.662-26.076 7.987-33.119 7.427-9.705 17.61-14.558 30.557-14.558 12.755 0 22.85 4.853 30.263 14.558 5.146 7.043 7.71 18.083 7.71 33.119v29.411z"/><path fill="#cd332d" d="M302.634 336.043c-4.38 0-8.658 2.101-12.847 6.283v85.934c4.188 4.186 8.467 6.279 12.847 6.279 7.419 0 11.14-6.372 11.14-19.13v-60.236c-.001-12.755-3.713-19.13-11.14-19.13zM397.428 336.043c-8.565 0-12.847 6.475-12.847 19.41v13.134h25.693v-13.134c0-12.942-4.284-19.41-12.846-19.41zM148.473 113.917v77.375h28.549v-77.375L211.563 0h-29.121l-19.41 75.089L142.759 0h-30.262c5.33 15.99 11.516 33.785 18.559 53.391 8.947 26.265 14.749 46.444 17.417 60.526zM249.82 193.291c13.134 0 23.219-4.854 30.262-14.561 5.332-7.043 7.994-18.274 7.994-33.689V95.075c0-15.225-2.669-26.363-7.994-33.406-7.043-9.707-17.128-14.561-30.262-14.561-12.756 0-22.75 4.854-29.98 14.561-5.327 7.043-7.992 18.181-7.992 33.406v49.965c0 15.225 2.662 26.457 7.992 33.689 7.233 9.708 17.223 14.562 29.98 14.562zM237.541 89.935c0-13.134 4.093-19.701 12.279-19.701s12.275 6.567 12.275 19.701v59.955c0 13.328-4.089 19.985-12.275 19.985s-12.279-6.661-12.279-19.985V89.935zM328.328 193.291c9.523 0 19.328-5.901 29.413-17.705v15.703h25.981V48.822h-25.981v108.777c-5.712 8.186-11.133 12.275-16.279 12.275-3.429 0-5.428-2.093-5.996-6.28-.191-.381-.287-3.715-.287-9.994V48.822h-25.981v112.492c0 9.705.767 16.84 2.286 21.411 2.477 7.043 8.09 10.566 16.844 10.566z"/></svg><view id="youtube-grey" viewBox="128 23 23 23"/><svg width="23" height="23" viewBox="0 0 511.627 511.627" x="128" y="23" xmlns="http://www.w3.org/2000/svg"><path fill="#858e97" d="M459.954 264.376c-2.471-11.233-7.949-20.653-16.416-28.264-8.474-7.611-18.227-12.085-29.27-13.418-35.02-3.806-87.837-5.708-158.457-5.708-70.618 0-123.341 1.903-158.174 5.708-11.227 1.333-21.029 5.807-29.407 13.418-8.376 7.614-13.896 17.035-16.562 28.264-4.948 22.083-7.423 55.391-7.423 99.931 0 45.299 2.475 78.61 7.423 99.93 2.478 11.225 7.951 20.653 16.421 28.261 8.47 7.614 18.225 11.991 29.263 13.134 35.026 3.997 87.847 5.996 158.461 5.996 70.609 0 123.44-1.999 158.453-5.996 11.043-1.143 20.748-5.52 29.126-13.134 8.377-7.607 13.897-17.036 16.56-28.261 4.948-22.083 7.426-55.391 7.426-99.93-.001-45.3-2.479-78.612-7.424-99.931zm-294.929 28.842h-30.549v162.45h-28.549v-162.45h-29.98v-26.837h89.079v26.837zm77.085 162.45H216.7v-15.421c-10.278 11.615-19.989 17.419-29.125 17.419-8.754 0-14.275-3.524-16.556-10.564-1.521-4.568-2.286-11.519-2.286-20.844V314.627h25.41v103.924c0 6.088.096 9.421.288 9.993.571 3.997 2.568 5.995 5.996 5.995 5.138 0 10.566-3.997 16.274-11.991V314.627h25.41v141.041zm97.073-42.257c0 13.894-.855 23.417-2.56 28.558-3.244 10.462-9.996 15.697-20.273 15.697-9.137 0-17.986-5.235-26.556-15.697v13.702h-25.406v-189.29h25.406v61.955c8.189-10.273 17.036-15.413 26.556-15.413 10.277 0 17.029 5.331 20.273 15.988 1.704 4.948 2.56 14.369 2.56 28.264v56.236zm96.502-23.408h-51.104v24.839c0 13.134 4.374 19.697 13.131 19.697 6.279 0 10.089-3.422 11.42-10.28.376-1.902.571-7.706.571-17.412h25.981v3.71c0 9.329-.195 14.846-.572 16.563-.567 5.133-2.56 10.273-5.995 15.413-6.852 10.089-17.139 15.133-30.841 15.133-13.127 0-23.407-4.855-30.833-14.558-5.517-7.043-8.275-18.083-8.275-33.12v-49.396c0-15.036 2.662-26.076 7.987-33.119 7.427-9.705 17.61-14.558 30.557-14.558 12.755 0 22.85 4.853 30.263 14.558 5.146 7.043 7.71 18.083 7.71 33.119v29.411z"/><path fill="#858e97" d="M302.634 336.043c-4.38 0-8.658 2.101-12.847 6.283v85.934c4.188 4.186 8.467 6.279 12.847 6.279 7.419 0 11.14-6.372 11.14-19.13v-60.236c-.001-12.755-3.713-19.13-11.14-19.13zM397.428 336.043c-8.565 0-12.847 6.475-12.847 19.41v13.134h25.693v-13.134c0-12.942-4.284-19.41-12.846-19.41zM148.473 113.917v77.375h28.549v-77.375L211.563 0h-29.121l-19.41 75.089L142.759 0h-30.262c5.33 15.99 11.516 33.785 18.559 53.391 8.947 26.265 14.749 46.444 17.417 60.526zM249.82 193.291c13.134 0 23.219-4.854 30.262-14.561 5.332-7.043 7.994-18.274 7.994-33.689V95.075c0-15.225-2.669-26.363-7.994-33.406-7.043-9.707-17.128-14.561-30.262-14.561-12.756 0-22.75 4.854-29.98 14.561-5.327 7.043-7.992 18.181-7.992 33.406v49.965c0 15.225 2.662 26.457 7.992 33.689 7.233 9.708 17.223 14.562 29.98 14.562zM237.541 89.935c0-13.134 4.093-19.701 12.279-19.701s12.275 6.567 12.275 19.701v59.955c0 13.328-4.089 19.985-12.275 19.985s-12.279-6.661-12.279-19.985V89.935zM328.328 193.291c9.523 0 19.328-5.901 29.413-17.705v15.703h25.981V48.822h-25.981v108.777c-5.712 8.186-11.133 12.275-16.279 12.275-3.429 0-5.428-2.093-5.996-6.28-.191-.381-.287-3.715-.287-9.994V48.822h-25.981v112.492c0 9.705.767 16.84 2.286 21.411 2.477 7.043 8.09 10.566 16.844 10.566z"/></svg><view id="youtube-light-grey" viewBox="128 46 23 23"/><svg width="23" height="23" viewBox="0 0 511.627 511.627" x="128" y="46" xmlns="http://www.w3.org/2000/svg"><path fill="#ccc" d="M459.954 264.376c-2.471-11.233-7.949-20.653-16.416-28.264-8.474-7.611-18.227-12.085-29.27-13.418-35.02-3.806-87.837-5.708-158.457-5.708-70.618 0-123.341 1.903-158.174 5.708-11.227 1.333-21.029 5.807-29.407 13.418-8.376 7.614-13.896 17.035-16.562 28.264-4.948 22.083-7.423 55.391-7.423 99.931 0 45.299 2.475 78.61 7.423 99.93 2.478 11.225 7.951 20.653 16.421 28.261 8.47 7.614 18.225 11.991 29.263 13.134 35.026 3.997 87.847 5.996 158.461 5.996 70.609 0 123.44-1.999 158.453-5.996 11.043-1.143 20.748-5.52 29.126-13.134 8.377-7.607 13.897-17.036 16.56-28.261 4.948-22.083 7.426-55.391 7.426-99.93-.001-45.3-2.479-78.612-7.424-99.931zm-294.929 28.842h-30.549v162.45h-28.549v-162.45h-29.98v-26.837h89.079v26.837zm77.085 162.45H216.7v-15.421c-10.278 11.615-19.989 17.419-29.125 17.419-8.754 0-14.275-3.524-16.556-10.564-1.521-4.568-2.286-11.519-2.286-20.844V314.627h25.41v103.924c0 6.088.096 9.421.288 9.993.571 3.997 2.568 5.995 5.996 5.995 5.138 0 10.566-3.997 16.274-11.991V314.627h25.41v141.041zm97.073-42.257c0 13.894-.855 23.417-2.56 28.558-3.244 10.462-9.996 15.697-20.273 15.697-9.137 0-17.986-5.235-26.556-15.697v13.702h-25.406v-189.29h25.406v61.955c8.189-10.273 17.036-15.413 26.556-15.413 10.277 0 17.029 5.331 20.273 15.988 1.704 4.948 2.56 14.369 2.56 28.264v56.236zm96.502-23.408h-51.104v24.839c0 13.134 4.374 19.697 13.131 19.697 6.279 0 10.089-3.422 11.42-10.28.376-1.902.571-7.706.571-17.412h25.981v3.71c0 9.329-.195 14.846-.572 16.563-.567 5.133-2.56 10.273-5.995 15.413-6.852 10.089-17.139 15.133-30.841 15.133-13.127 0-23.407-4.855-30.833-14.558-5.517-7.043-8.275-18.083-8.275-33.12v-49.396c0-15.036 2.662-26.076 7.987-33.119 7.427-9.705 17.61-14.558 30.557-14.558 12.755 0 22.85 4.853 30.263 14.558 5.146 7.043 7.71 18.083 7.71 33.119v29.411z"/><path fill="#ccc" d="M302.634 336.043c-4.38 0-8.658 2.101-12.847 6.283v85.934c4.188 4.186 8.467 6.279 12.847 6.279 7.419 0 11.14-6.372 11.14-19.13v-60.236c-.001-12.755-3.713-19.13-11.14-19.13zM397.428 336.043c-8.565 0-12.847 6.475-12.847 19.41v13.134h25.693v-13.134c0-12.942-4.284-19.41-12.846-19.41zM148.473 113.917v77.375h28.549v-77.375L211.563 0h-29.121l-19.41 75.089L142.759 0h-30.262c5.33 15.99 11.516 33.785 18.559 53.391 8.947 26.265 14.749 46.444 17.417 60.526zM249.82 193.291c13.134 0 23.219-4.854 30.262-14.561 5.332-7.043 7.994-18.274 7.994-33.689V95.075c0-15.225-2.669-26.363-7.994-33.406-7.043-9.707-17.128-14.561-30.262-14.561-12.756 0-22.75 4.854-29.98 14.561-5.327 7.043-7.992 18.181-7.992 33.406v49.965c0 15.225 2.662 26.457 7.992 33.689 7.233 9.708 17.223 14.562 29.98 14.562zM237.541 89.935c0-13.134 4.093-19.701 12.279-19.701s12.275 6.567 12.275 19.701v59.955c0 13.328-4.089 19.985-12.275 19.985s-12.279-6.661-12.279-19.985V89.935zM328.328 193.291c9.523 0 19.328-5.901 29.413-17.705v15.703h25.981V48.822h-25.981v108.777c-5.712 8.186-11.133 12.275-16.279 12.275-3.429 0-5.428-2.093-5.996-6.28-.191-.381-.287-3.715-.287-9.994V48.822h-25.981v112.492c0 9.705.767 16.84 2.286 21.411 2.477 7.043 8.09 10.566 16.844 10.566z"/></svg><view id="youtube-white" viewBox="128 69 23 23"/><svg width="23" height="23" viewBox="0 0 511.627 511.627" x="128" y="69" xmlns="http://www.w3.org/2000/svg"><path fill="#fff" d="M459.954 264.376c-2.471-11.233-7.949-20.653-16.416-28.264-8.474-7.611-18.227-12.085-29.27-13.418-35.02-3.806-87.837-5.708-158.457-5.708-70.618 0-123.341 1.903-158.174 5.708-11.227 1.333-21.029 5.807-29.407 13.418-8.376 7.614-13.896 17.035-16.562 28.264-4.948 22.083-7.423 55.391-7.423 99.931 0 45.299 2.475 78.61 7.423 99.93 2.478 11.225 7.951 20.653 16.421 28.261 8.47 7.614 18.225 11.991 29.263 13.134 35.026 3.997 87.847 5.996 158.461 5.996 70.609 0 123.44-1.999 158.453-5.996 11.043-1.143 20.748-5.52 29.126-13.134 8.377-7.607 13.897-17.036 16.56-28.261 4.948-22.083 7.426-55.391 7.426-99.93-.001-45.3-2.479-78.612-7.424-99.931zm-294.929 28.842h-30.549v162.45h-28.549v-162.45h-29.98v-26.837h89.079v26.837zm77.085 162.45H216.7v-15.421c-10.278 11.615-19.989 17.419-29.125 17.419-8.754 0-14.275-3.524-16.556-10.564-1.521-4.568-2.286-11.519-2.286-20.844V314.627h25.41v103.924c0 6.088.096 9.421.288 9.993.571 3.997 2.568 5.995 5.996 5.995 5.138 0 10.566-3.997 16.274-11.991V314.627h25.41v141.041zm97.073-42.257c0 13.894-.855 23.417-2.56 28.558-3.244 10.462-9.996 15.697-20.273 15.697-9.137 0-17.986-5.235-26.556-15.697v13.702h-25.406v-189.29h25.406v61.955c8.189-10.273 17.036-15.413 26.556-15.413 10.277 0 17.029 5.331 20.273 15.988 1.704 4.948 2.56 14.369 2.56 28.264v56.236zm96.502-23.408h-51.104v24.839c0 13.134 4.374 19.697 13.131 19.697 6.279 0 10.089-3.422 11.42-10.28.376-1.902.571-7.706.571-17.412h25.981v3.71c0 9.329-.195 14.846-.572 16.563-.567 5.133-2.56 10.273-5.995 15.413-6.852 10.089-17.139 15.133-30.841 15.133-13.127 0-23.407-4.855-30.833-14.558-5.517-7.043-8.275-18.083-8.275-33.12v-49.396c0-15.036 2.662-26.076 7.987-33.119 7.427-9.705 17.61-14.558 30.557-14.558 12.755 0 22.85 4.853 30.263 14.558 5.146 7.043 7.71 18.083 7.71 33.119v29.411z"/><path fill="#fff" d="M302.634 336.043c-4.38 0-8.658 2.101-12.847 6.283v85.934c4.188 4.186 8.467 6.279 12.847 6.279 7.419 0 11.14-6.372 11.14-19.13v-60.236c-.001-12.755-3.713-19.13-11.14-19.13zM397.428 336.043c-8.565 0-12.847 6.475-12.847 19.41v13.134h25.693v-13.134c0-12.942-4.284-19.41-12.846-19.41zM148.473 113.917v77.375h28.549v-77.375L211.563 0h-29.121l-19.41 75.089L142.759 0h-30.262c5.33 15.99 11.516 33.785 18.559 53.391 8.947 26.265 14.749 46.444 17.417 60.526zM249.82 193.291c13.134 0 23.219-4.854 30.262-14.561 5.332-7.043 7.994-18.274 7.994-33.689V95.075c0-15.225-2.669-26.363-7.994-33.406-7.043-9.707-17.128-14.561-30.262-14.561-12.756 0-22.75 4.854-29.98 14.561-5.327 7.043-7.992 18.181-7.992 33.406v49.965c0 15.225 2.662 26.457 7.992 33.689 7.233 9.708 17.223 14.562 29.98 14.562zM237.541 89.935c0-13.134 4.093-19.701 12.279-19.701s12.275 6.567 12.275 19.701v59.955c0 13.328-4.089 19.985-12.275 19.985s-12.279-6.661-12.279-19.985V89.935zM328.328 193.291c9.523 0 19.328-5.901 29.413-17.705v15.703h25.981V48.822h-25.981v108.777c-5.712 8.186-11.133 12.275-16.279 12.275-3.429 0-5.428-2.093-5.996-6.28-.191-.381-.287-3.715-.287-9.994V48.822h-25.981v112.492c0 9.705.767 16.84 2.286 21.411 2.477 7.043 8.09 10.566 16.844 10.566z"/></svg></svg>