<?xml version="1.0" standalone="no"?>
<!DOCTYPE svg PUBLIC "-//W3C//DTD SVG 20010904//EN"
 "http://www.w3.org/TR/2001/REC-SVG-20010904/DTD/svg10.dtd">
<svg version="1.0" xmlns="http://www.w3.org/2000/svg"
 width="192.000000pt" height="192.000000pt" viewBox="0 0 192.000000 192.000000"
 preserveAspectRatio="xMidYMid meet">
<metadata>
Created by potrace 1.11, written by Peter Selinger 2001-2013
</metadata>
<g transform="translate(0.000000,192.000000) scale(0.100000,-0.100000)"
fill="#000000" stroke="none">
<path d="M300 1902 c-5 -10 -10 -12 -10 -4 0 10 -4 10 -22 0 -13 -7 -26 -18
-31 -25 -4 -7 -13 -10 -20 -7 -7 2 -22 -5 -34 -16 -12 -11 -27 -20 -33 -20 -6
0 -9 -4 -5 -9 3 -5 -4 -12 -15 -16 -11 -4 -18 -11 -15 -16 4 -5 0 -9 -8 -9
-13 0 -31 -33 -28 -52 0 -4 -6 -5 -14 -2 -10 4 -15 0 -15 -11 0 -9 -10 -31
-22 -48 -12 -17 -17 -27 -10 -23 8 5 10 2 6 -8 -3 -9 -9 -16 -13 -16 -4 0 -8
-59 -9 -130 -1 -91 2 -129 9 -124 7 4 9 -1 4 -15 -4 -13 -2 -21 5 -21 6 0 9
-4 5 -9 -3 -5 -1 -12 5 -16 6 -4 7 -11 4 -17 -4 -7 -2 -8 4 -4 7 4 12 4 13 -1
3 -31 10 -47 30 -64 12 -10 19 -19 15 -19 -4 0 -1 -6 6 -14 7 -8 16 -12 20 -9
5 2 8 -3 8 -12 0 -9 5 -13 10 -10 6 3 10 -1 10 -10 0 -9 4 -14 9 -10 6 3 13
-1 18 -9 4 -8 15 -16 23 -18 8 -2 21 -9 28 -16 8 -7 18 -10 23 -7 5 4 9 1 9
-4 0 -6 9 -11 20 -11 11 0 20 -4 20 -8 0 -8 5 -9 70 -13 19 -1 40 -6 47 -11 7
-6 14 -5 18 2 5 8 11 8 21 -1 8 -6 14 -7 14 -2 0 6 10 9 23 9 12 -1 27 0 32 3
15 8 38 13 62 13 13 0 20 4 17 9 -5 8 9 13 29 10 4 0 7 4 7 9 0 6 9 10 21 10
11 0 17 5 14 10 -3 6 -1 10 5 10 17 0 61 36 53 44 -3 3 1 6 10 6 10 0 17 7 17
15 0 8 5 14 12 12 7 -1 12 4 13 11 0 7 5 16 10 20 6 4 17 16 25 26 13 18 13
19 0 12 -8 -4 -6 0 4 8 11 9 16 16 12 16 -5 0 -3 7 4 15 6 8 8 20 4 26 -5 8
-3 9 6 4 9 -6 10 -2 5 15 -5 15 -4 20 4 16 10 -7 13 9 14 82 0 12 5 22 11 22
6 0 5 4 -3 9 -8 5 -9 11 -3 15 7 4 6 20 -3 48 -6 24 -10 49 -7 57 3 9 0 11 -8
6 -9 -5 -11 -4 -6 3 8 14 -27 95 -38 85 -4 -4 -4 0 -1 8 3 9 -4 26 -17 41 -13
14 -29 35 -37 46 -8 12 -18 19 -23 16 -4 -3 -8 2 -8 10 0 9 -7 16 -15 16 -8 0
-15 5 -15 11 0 6 -7 8 -16 5 -8 -3 -12 -2 -9 4 7 11 -69 52 -79 43 -3 -4 -6
-2 -6 4 0 13 -6 14 -152 18 -111 3 -129 1 -138 -13z"/>
<path d="M1387 1906 c3 -5 0 -6 -8 -4 -8 3 -23 -2 -33 -11 -11 -9 -16 -10 -12
-3 4 6 2 12 -3 12 -6 0 -11 -5 -11 -11 0 -5 -4 -8 -9 -4 -5 3 -12 1 -16 -5 -4
-6 -10 -8 -15 -5 -4 3 -10 -2 -14 -10 -3 -9 -12 -12 -22 -8 -12 4 -15 3 -10
-5 4 -7 2 -12 -5 -12 -6 0 -20 -10 -30 -22 -11 -11 -19 -18 -19 -13 0 12 -69
-68 -76 -87 -3 -10 -10 -18 -15 -18 -6 0 -8 -4 -4 -9 3 -5 0 -13 -6 -16 -5 -4
-8 -13 -5 -21 3 -8 0 -13 -6 -11 -9 2 -17 -18 -20 -50 -1 -7 -6 -13 -12 -13
-6 0 -4 -5 4 -10 11 -7 11 -10 2 -10 -7 0 -11 -4 -8 -8 2 -4 1 -14 -4 -22 -5
-8 -5 -22 1 -32 7 -13 6 -18 -2 -18 -8 0 -8 -4 1 -15 10 -12 10 -15 0 -15 -9
0 -10 -3 -1 -13 6 -8 8 -17 4 -20 -3 -4 0 -14 8 -24 9 -11 10 -14 2 -9 -7 4
-13 2 -13 -3 0 -6 4 -11 8 -11 5 0 9 -6 10 -12 3 -38 8 -54 20 -66 7 -8 10
-18 7 -23 -4 -5 -1 -9 4 -9 6 0 11 -7 11 -15 0 -8 5 -15 10 -15 6 0 10 -4 10
-9 0 -5 25 -35 55 -65 31 -31 53 -50 50 -43 -4 6 0 4 8 -5 8 -10 17 -15 20
-11 4 3 7 -2 7 -13 0 -16 2 -17 10 -4 5 8 10 10 10 4 0 -6 12 -16 26 -22 15
-7 23 -8 19 -2 -3 5 11 0 31 -12 25 -14 35 -17 29 -8 -8 13 -6 13 8 1 9 -7 17
-11 17 -9 0 3 18 2 40 -2 27 -5 40 -4 40 4 0 6 5 4 10 -4 5 -8 10 -10 10 -5 0
6 12 10 28 9 15 -1 33 3 40 9 8 6 12 5 12 -4 1 -10 3 -10 10 2 6 10 20 15 35
14 14 -2 23 0 20 5 -4 6 29 21 43 19 2 0 10 8 19 18 8 10 12 12 8 3 -4 -8 4
-3 17 13 14 15 28 27 32 27 10 0 46 34 46 44 0 5 10 17 22 27 11 11 18 19 14
19 -4 0 0 7 8 16 9 8 14 20 11 25 -4 5 -1 9 5 9 6 0 8 5 5 10 -3 6 -1 10 4 10
6 0 11 12 11 26 0 14 4 23 9 20 4 -3 6 6 3 21 -3 17 -1 24 6 19 11 -7 11 12
-1 32 -5 6 -4 12 1 12 5 0 7 26 5 58 -2 31 -5 71 -6 89 -1 17 -5 29 -8 27 -7
-4 -24 44 -21 59 1 4 -3 7 -10 7 -6 0 -9 3 -5 6 3 4 -1 13 -9 21 -8 8 -12 18
-9 23 3 5 -4 11 -15 15 -11 3 -19 10 -17 14 1 4 -15 23 -35 42 -53 49 -66 59
-78 59 -5 0 -10 5 -10 10 0 5 -3 9 -7 9 -19 -3 -34 2 -29 9 2 4 -10 9 -27 10
-17 2 -34 6 -37 11 -6 9 -5 9 -122 13 -50 2 -84 0 -81 -6z"/>
<path d="M1155 1150 c10 -11 20 -20 23 -20 3 0 -3 9 -13 20 -10 11 -20 20 -23
20 -3 0 3 -9 13 -20z"/>
<path d="M1466 922 c-3 -5 -21 -8 -41 -7 -19 0 -35 -3 -35 -8 0 -4 -4 -6 -9
-2 -5 3 -13 0 -17 -6 -4 -8 -9 -7 -15 2 -7 11 -9 11 -9 1 0 -7 -4 -10 -10 -7
-5 3 -10 2 -10 -3 0 -5 -9 -12 -20 -15 -13 -3 -18 -1 -14 6 4 7 -3 2 -15 -10
-12 -13 -27 -23 -34 -23 -7 0 -19 -9 -27 -20 -8 -11 -18 -20 -23 -20 -11 0
-66 -58 -60 -64 3 -2 -4 -9 -15 -15 -11 -6 -23 -22 -26 -36 -4 -17 -11 -23
-19 -18 -8 4 -7 1 2 -10 11 -14 11 -18 -2 -23 -9 -3 -13 -12 -10 -20 3 -8 0
-14 -7 -14 -6 0 -9 -4 -5 -9 3 -5 0 -13 -6 -17 -8 -4 -7 -9 2 -15 9 -6 10 -9
2 -9 -6 0 -10 -11 -8 -25 1 -14 -2 -25 -6 -25 -5 0 -9 -5 -9 -11 0 -5 4 -7 10
-4 7 4 7 -3 0 -19 -7 -19 -6 -26 3 -26 8 0 7 -4 -3 -10 -8 -5 -10 -10 -4 -10
7 0 10 -12 8 -30 -2 -16 1 -32 6 -35 6 -3 10 -17 10 -31 0 -13 5 -24 10 -24 6
0 10 -8 10 -17 1 -21 24 -55 33 -47 3 3 3 -3 0 -15 -3 -13 -1 -21 6 -21 7 0 9
-5 6 -10 -4 -6 -2 -9 3 -8 4 2 25 -14 45 -35 20 -20 37 -34 37 -31 0 4 8 -3
19 -14 10 -12 26 -22 35 -22 10 0 14 -4 11 -10 -3 -6 1 -7 9 -4 9 3 16 1 16
-6 0 -6 5 -8 10 -5 6 3 10 2 10 -3 0 -5 6 -9 13 -10 36 -5 53 -8 62 -13 21
-12 155 -8 155 4 0 8 3 7 9 -2 6 -9 11 -10 15 -2 4 6 11 9 16 6 5 -3 27 4 50
15 22 11 40 17 40 13 0 -5 4 -3 8 2 4 6 16 17 26 25 18 13 19 13 12 0 -5 -8 3
-3 16 12 14 15 27 25 30 23 2 -3 11 6 18 20 7 14 20 25 27 25 8 0 11 5 8 10
-3 6 -2 10 3 10 5 0 17 16 26 35 9 19 21 35 27 35 6 0 7 4 4 10 -3 5 -2 10 4
10 6 0 8 7 5 15 -4 8 -1 15 6 15 6 0 8 4 5 10 -3 5 2 22 12 37 17 26 17 27 0
14 -15 -12 -17 -12 -11 3 3 9 9 16 13 16 9 0 7 113 -3 129 -6 10 -5 12 2 7 7
-4 12 -2 12 3 0 6 -4 11 -8 11 -4 0 -7 12 -7 28 1 15 -5 35 -13 44 -8 10 -12
24 -8 33 3 9 2 13 -4 10 -12 -8 -30 25 -30 56 0 5 -4 7 -10 4 -5 -3 -10 0 -10
8 0 8 -7 18 -16 21 -9 3 -12 11 -8 18 4 7 4 10 0 6 -11 -9 -36 14 -28 26 3 5
0 6 -7 2 -6 -4 -14 -1 -17 7 -3 9 -19 21 -35 27 -16 7 -29 16 -29 21 0 5 -9 9
-20 9 -11 0 -20 4 -20 9 0 5 -7 12 -16 15 -10 4 -13 2 -8 -7 5 -7 1 -7 -9 2
-10 8 -33 15 -51 16 -18 1 -38 5 -45 9 -6 4 -11 5 -11 1 0 -3 -9 -1 -19 5 -11
5 -22 6 -25 2z"/>
</g>
</svg>
